<?xml version="1.0" encoding="UTF-8"?>
<svg xmlns="http://www.w3.org/2000/svg" width="1320" height="1530" viewBox="0 0 1320 1530">
<style>
text { font-family: Arial, Helvetica, sans-serif; fill: #1f2937; }
.title { font-size: 14px; font-weight: 700; fill: #ffffff; }
.field { font-size: 12px; }
.label { font-size: 11px; font-weight: 700; fill: #0f172a; }
.legend { font-size: 12px; }
</style>
<rect width="100%" height="100%" fill="#f8fafc"/>
<text x="40" y="28" style="font-size:22px;font-weight:700;fill:#0f172a;">Memento Vitae ERD</text>
<text x="40" y="48" class="legend">Strict database ERD showing actual foreign-key relationships from the SQL schema.</text>
<polyline points="475,156 475,193 475,193 475,230" fill="none" stroke="#64748b" stroke-width="2"/>
<rect x="419" y="174" width="112" height="18" rx="6" fill="#f8fafc"/>
<text x="475" y="187" class="label" text-anchor="middle">role_id</text>
<text x="481" y="150" class="label">1</text>
<text x="447" y="224" class="label">many</text>
<polyline points="475,230 455,331 195,331 215,432" fill="none" stroke="#64748b" stroke-width="2"/>
<rect x="269" y="312" width="112" height="18" rx="6" fill="#f8fafc"/>
<text x="325" y="325" class="label" text-anchor="middle">user_id</text>
<text x="481" y="224" class="label">1</text>
<text x="187" y="426" class="label">many</text>
<polyline points="475,230 495,331 755,331 735,432" fill="none" stroke="#64748b" stroke-width="2"/>
<rect x="569" y="312" width="112" height="18" rx="6" fill="#f8fafc"/>
<text x="625" y="325" class="label" text-anchor="middle">user_id</text>
<text x="481" y="224" class="label">1</text>
<text x="707" y="426" class="label">many</text>
<polyline points="475,490 475,545 475,545 475,600" fill="none" stroke="#64748b" stroke-width="2"/>
<rect x="419" y="526" width="112" height="18" rx="6" fill="#f8fafc"/>
<text x="475" y="539" class="label" text-anchor="middle">user_id</text>
<text x="481" y="484" class="label">1</text>
<text x="447" y="594" class="label">many</text>
<polyline points="650,360 735,328 735,310 820,342" fill="none" stroke="#64748b" stroke-width="2"/>
<rect x="666" y="300" width="139" height="18" rx="6" fill="#f8fafc"/>
<text x="735" y="313" class="label" text-anchor="middle">applicant_user_id</text>
<text x="656" y="354" class="label">1</text>
<text x="792" y="336" class="label">many</text>
<polyline points="650,360 735,360 735,342 820,342" fill="none" stroke="#64748b" stroke-width="2"/>
<rect x="679" y="332" width="112" height="18" rx="6" fill="#f8fafc"/>
<text x="735" y="345" class="label" text-anchor="middle">created_by</text>
<text x="656" y="354" class="label">1</text>
<text x="792" y="336" class="label">many</text>
<polyline points="650,360 735,392 735,374 820,342" fill="none" stroke="#64748b" stroke-width="2"/>
<rect x="679" y="364" width="112" height="18" rx="6" fill="#f8fafc"/>
<text x="735" y="377" class="label" text-anchor="middle">deleted_by</text>
<text x="656" y="354" class="label">0..1</text>
<text x="792" y="336" class="label">many</text>
<polyline points="995,544 995,602 995,602 995,660" fill="none" stroke="#64748b" stroke-width="2"/>
<rect x="939" y="583" width="112" height="18" rx="6" fill="#f8fafc"/>
<text x="995" y="596" class="label" text-anchor="middle">record_id</text>
<text x="1001" y="538" class="label">1</text>
<text x="967" y="654" class="label">many</text>
<polyline points="650,360 735,342 735,844 820,862" fill="none" stroke="#64748b" stroke-width="2"/>
<rect x="679" y="574" width="112" height="18" rx="6" fill="#f8fafc"/>
<text x="735" y="587" class="label" text-anchor="middle">uploaded_by</text>
<text x="656" y="354" class="label">1</text>
<text x="792" y="856" class="label">many</text>
<polyline points="650,360 735,378 735,880 820,862" fill="none" stroke="#64748b" stroke-width="2"/>
<rect x="679" y="610" width="112" height="18" rx="6" fill="#f8fafc"/>
<text x="735" y="623" class="label" text-anchor="middle">reviewed_by</text>
<text x="656" y="354" class="label">0..1</text>
<text x="792" y="856" class="label">many</text>
<polyline points="995,544 995,832 995,832 995,1120" fill="none" stroke="#64748b" stroke-width="2"/>
<rect x="939" y="813" width="112" height="18" rx="6" fill="#f8fafc"/>
<text x="995" y="826" class="label" text-anchor="middle">record_id</text>
<text x="1001" y="538" class="label">1</text>
<text x="967" y="1114" class="label">many</text>
<polyline points="650,360 735,360 735,1310 820,1310" fill="none" stroke="#64748b" stroke-width="2"/>
<rect x="666" y="816" width="139" height="18" rx="6" fill="#f8fafc"/>
<text x="735" y="829" class="label" text-anchor="middle">requester_user_id</text>
<text x="656" y="354" class="label">1</text>
<text x="792" y="1304" class="label">many</text>
<rect x="300" y="40" width="350" height="116" rx="10" fill="#ffffff" stroke="#0f172a" stroke-width="1.5"/>
<rect x="300" y="40" width="350" height="34" rx="10" fill="#0f766e"/>
<rect x="300" y="64" width="350" height="10" fill="#0f766e"/>
<text x="314" y="62" class="title">ROLES</text>
<line x1="300" y1="74" x2="650" y2="74" stroke="#cbd5e1" stroke-width="1"/>
<text x="314" y="94" class="field">role_id (PK)</text>
<text x="314" y="118" class="field">role_name</text>
<rect x="40" y="220" width="350" height="212" rx="10" fill="#ffffff" stroke="#0f172a" stroke-width="1.5"/>
<rect x="40" y="220" width="350" height="34" rx="10" fill="#0f766e"/>
<rect x="40" y="244" width="350" height="10" fill="#0f766e"/>
<text x="54" y="242" class="title">EMAIL_VERIFICATION_TOKENS</text>
<line x1="40" y1="254" x2="390" y2="254" stroke="#cbd5e1" stroke-width="1"/>
<text x="54" y="274" class="field">verification_id (PK)</text>
<text x="54" y="298" class="field">user_id (FK)</text>
<text x="54" y="322" class="field">token_hash (UK)</text>
<text x="54" y="346" class="field">expires_at</text>
<text x="54" y="370" class="field">used_at</text>
<text x="54" y="394" class="field">created_at</text>
<rect x="300" y="230" width="350" height="260" rx="10" fill="#ffffff" stroke="#0f172a" stroke-width="1.5"/>
<rect x="300" y="230" width="350" height="34" rx="10" fill="#0f766e"/>
<rect x="300" y="254" width="350" height="10" fill="#0f766e"/>
<text x="314" y="252" class="title">USERS</text>
<line x1="300" y1="264" x2="650" y2="264" stroke="#cbd5e1" stroke-width="1"/>
<text x="314" y="284" class="field">user_id (PK)</text>
<text x="314" y="308" class="field">full_name</text>
<text x="314" y="332" class="field">email (UK)</text>
<text x="314" y="356" class="field">password</text>
<text x="314" y="380" class="field">role_id (FK)</text>
<text x="314" y="404" class="field">status</text>
<text x="314" y="428" class="field">email_verified_at</text>
<text x="314" y="452" class="field">created_at</text>
<rect x="560" y="220" width="350" height="212" rx="10" fill="#ffffff" stroke="#0f172a" stroke-width="1.5"/>
<rect x="560" y="220" width="350" height="34" rx="10" fill="#0f766e"/>
<rect x="560" y="244" width="350" height="10" fill="#0f766e"/>
<text x="574" y="242" class="title">PASSWORD_RESET_TOKENS</text>
<line x1="560" y1="254" x2="910" y2="254" stroke="#cbd5e1" stroke-width="1"/>
<text x="574" y="274" class="field">reset_id (PK)</text>
<text x="574" y="298" class="field">user_id (FK)</text>
<text x="574" y="322" class="field">token_hash (UK)</text>
<text x="574" y="346" class="field">expires_at</text>
<text x="574" y="370" class="field">used_at</text>
<text x="574" y="394" class="field">created_at</text>
<rect x="820" y="140" width="350" height="404" rx="10" fill="#ffffff" stroke="#0f172a" stroke-width="1.5"/>
<rect x="820" y="140" width="350" height="34" rx="10" fill="#0f766e"/>
<rect x="820" y="164" width="350" height="10" fill="#0f766e"/>
<text x="834" y="162" class="title">DEATH_RECORDS</text>
<line x1="820" y1="174" x2="1170" y2="174" stroke="#cbd5e1" stroke-width="1"/>
<text x="834" y="194" class="field">record_id (PK)</text>
<text x="834" y="218" class="field">tracking_code (UK)</text>
<text x="834" y="242" class="field">deceased_name</text>
<text x="834" y="266" class="field">date_of_death</text>
<text x="834" y="290" class="field">place_of_death</text>
<text x="834" y="314" class="field">cause_of_death</text>
<text x="834" y="338" class="field">informant_name</text>
<text x="834" y="362" class="field">relationship</text>
<text x="834" y="386" class="field">applicant_user_id (FK)</text>
<text x="834" y="410" class="field">created_by (FK)</text>
<text x="834" y="434" class="field">status</text>
<text x="834" y="458" class="field">date_submitted</text>
<text x="834" y="482" class="field">deleted_at</text>
<text x="834" y="506" class="field">deleted_by (FK)</text>
<rect x="300" y="600" width="350" height="236" rx="10" fill="#ffffff" stroke="#0f172a" stroke-width="1.5"/>
<rect x="300" y="600" width="350" height="34" rx="10" fill="#0f766e"/>
<rect x="300" y="624" width="350" height="10" fill="#0f766e"/>
<text x="314" y="622" class="title">SOCIAL_ACCOUNTS</text>
<line x1="300" y1="634" x2="650" y2="634" stroke="#cbd5e1" stroke-width="1"/>
<text x="314" y="654" class="field">social_account_id (PK)</text>
<text x="314" y="678" class="field">user_id (FK)</text>
<text x="314" y="702" class="field">provider</text>
<text x="314" y="726" class="field">provider_user_id</text>
<text x="314" y="750" class="field">provider_email</text>
<text x="314" y="774" class="field">created_at</text>
<text x="314" y="798" class="field">last_login_at</text>
<rect x="820" y="660" width="350" height="404" rx="10" fill="#ffffff" stroke="#0f172a" stroke-width="1.5"/>
<rect x="820" y="660" width="350" height="34" rx="10" fill="#0f766e"/>
<rect x="820" y="684" width="350" height="10" fill="#0f766e"/>
<text x="834" y="682" class="title">RECORD_DOCUMENTS</text>
<line x1="820" y1="694" x2="1170" y2="694" stroke="#cbd5e1" stroke-width="1"/>
<text x="834" y="714" class="field">document_id (PK)</text>
<text x="834" y="738" class="field">record_id (FK)</text>
<text x="834" y="762" class="field">document_type</text>
<text x="834" y="786" class="field">original_file_name</text>
<text x="834" y="810" class="field">stored_file_name</text>
<text x="834" y="834" class="field">file_path</text>
<text x="834" y="858" class="field">mime_type</text>
<text x="834" y="882" class="field">file_size</text>
<text x="834" y="906" class="field">uploaded_by (FK)</text>
<text x="834" y="930" class="field">review_status</text>
<text x="834" y="954" class="field">review_notes</text>
<text x="834" y="978" class="field">reviewed_by (FK)</text>
<text x="834" y="1002" class="field">reviewed_at</text>
<text x="834" y="1026" class="field">uploaded_at</text>
<rect x="820" y="1120" width="350" height="380" rx="10" fill="#ffffff" stroke="#0f172a" stroke-width="1.5"/>
<rect x="820" y="1120" width="350" height="34" rx="10" fill="#0f766e"/>
<rect x="820" y="1144" width="350" height="10" fill="#0f766e"/>
<text x="834" y="1142" class="title">DEATH_CERTIFICATE_REQUESTS</text>
<line x1="820" y1="1154" x2="1170" y2="1154" stroke="#cbd5e1" stroke-width="1"/>
<text x="834" y="1174" class="field">request_id (PK)</text>
<text x="834" y="1198" class="field">record_id (FK)</text>
<text x="834" y="1222" class="field">requester_user_id (FK)</text>
<text x="834" y="1246" class="field">recipient_email</text>
<text x="834" y="1270" class="field">purpose</text>
<text x="834" y="1294" class="field">copies_requested</text>
<text x="834" y="1318" class="field">contact_number</text>
<text x="834" y="1342" class="field">remarks</text>
<text x="834" y="1366" class="field">status</text>
<text x="834" y="1390" class="field">email_status</text>
<text x="834" y="1414" class="field">email_error</text>
<text x="834" y="1438" class="field">submitted_at</text>
<text x="834" y="1462" class="field">emailed_at</text>
<rect x="40" y="1470" width="1240" height="34" rx="8" fill="#e2e8f0"/>
<text x="56" y="1492" class="legend">This is the recommended submission image for the 6DWEB Database Design section.</text>
</svg>